<svg width="60" height="60" viewBox="0 0 60 60" fill="none" xmlns="http://www.w3.org/2000/svg">
<path fill-rule="evenodd" clip-rule="evenodd" d="M7 7V16H16V7H7ZM6 4H17C18.1046 4 19 4.89543 19 6V17C19 18.1046 18.1046 19 17 19H6C4.89543 19 4 18.1046 4 17V6C4 4.89543 4.89543 4 6 4ZM44 26V34H53V26H44ZM43 23H54C55.1046 23 56 23.8954 56 25V35C56 36.1046 55.1046 37 54 37H43C41.8954 37 41 36.1046 41 35V25C41 23.8954 41.8954 23 43 23ZM44 44V53H53V44H44ZM43 41H54C55.1046 41 56 41.8954 56 43V54C56 55.1046 55.1046 56 54 56H43C41.8954 56 41 55.1046 41 54V43C41 41.8954 41.8954 41 43 41ZM26 53V44H34V53H26ZM35 41H25C23.8954 41 23 41.8954 23 43V54C23 55.1046 23.8954 56 25 56H35C36.1046 56 37 55.1046 37 54V43C37 41.8954 36.1046 41 35 41ZM7 44V53H16V44H7ZM6 41H17C18.1046 41 19 41.8954 19 43V54C19 55.1046 18.1046 56 17 56H6C4.89543 56 4 55.1046 4 54V43C4 41.8954 4.89543 41 6 41ZM7 34V26H16V34H7ZM17 23H6C4.89543 23 4 23.8954 4 25V35C4 36.1046 4.89543 37 6 37H17C18.1046 37 19 36.1046 19 35V25C19 23.8954 18.1046 23 17 23ZM26 34V26H34V34H26ZM35 23H25C23.8954 23 23 23.8954 23 25V35C23 36.1046 23.8954 37 25 37H35C36.1046 37 37 36.1046 37 35V25C37 23.8954 36.1046 23 35 23ZM26 7V16H34V7H26ZM25 4H35C36.1046 4 37 4.89543 37 6V17C37 18.1046 36.1046 19 35 19H25C23.8954 19 23 18.1046 23 17V6C23 4.89543 23.8954 4 25 4ZM53 17H43V7H53V17Z" fill="url(#paint0_linear_1263_1421)"/>
<defs>
<linearGradient id="paint0_linear_1263_1421" x1="2.11012" y1="28.8257" x2="38.328" y2="50.1668" gradientUnits="userSpaceOnUse">
<stop stop-color="#00EDD1"/>
<stop offset="0.846354" stop-color="#45C7FF"/>
</linearGradient>
</defs>
</svg>
