<svg width="25" height="25" viewBox="0 0 25 25" fill="none" xmlns="http://www.w3.org/2000/svg">
<path fill-rule="evenodd" clip-rule="evenodd" d="M14.1257 4.16667C14.1257 4.77648 13.6313 5.27083 13.0215 5.27083C12.4117 5.27083 11.9173 4.77648 11.9173 4.16667C11.9173 3.55685 12.4117 3.0625 13.0215 3.0625C13.6313 3.0625 14.1257 3.55685 14.1257 4.16667ZM13.7639 6.66349C14.8404 6.34388 15.6257 5.34697 15.6257 4.16667C15.6257 2.72843 14.4597 1.5625 13.0215 1.5625C11.5832 1.5625 10.4173 2.72843 10.4173 4.16667C10.4173 5.34697 11.2025 6.34388 12.2791 6.66349C12.2741 6.69855 12.2715 6.73439 12.2715 6.77083V8.69753C10.4903 9.04684 9.14648 10.6165 9.14648 12.5C9.14648 14.3835 10.4903 15.9532 12.2715 16.3025V18.2292C12.2715 18.2656 12.2741 18.3015 12.2791 18.3365C11.2025 18.6561 10.4173 19.653 10.4173 20.8333C10.4173 22.2716 11.5832 23.4375 13.0215 23.4375C14.4597 23.4375 15.6257 22.2716 15.6257 20.8333C15.6257 19.653 14.8404 18.6561 13.7639 18.3365C13.7689 18.3015 13.7715 18.2656 13.7715 18.2292V16.3025C14.6795 16.1244 15.4738 15.6292 16.0344 14.937L18.3336 16.355C18.281 16.7039 18.2988 17.0693 18.3982 17.4315C18.7789 18.8184 20.2118 19.6342 21.5987 19.2536C22.9857 18.8729 23.8015 17.44 23.4208 16.053C23.0402 14.6661 21.6072 13.8503 20.2203 14.2309C19.7247 14.367 19.3021 14.6373 18.9809 14.9919L16.7359 13.6074C16.8404 13.2565 16.8965 12.8848 16.8965 12.5C16.8965 12.1393 16.8472 11.7902 16.755 11.4589L19.0279 10.2101C19.3445 10.5382 19.7514 10.7873 20.2238 10.9143C21.6126 11.2879 23.0414 10.4648 23.415 9.07597C23.7886 7.6871 22.9655 6.25834 21.5766 5.88476C20.1878 5.51117 18.759 6.33423 18.3854 7.7231C18.2807 8.11259 18.27 8.50521 18.3395 8.87682L16.0788 10.1189C15.5162 9.39747 14.7037 8.88035 13.7715 8.69753V6.77083C13.7715 6.73439 13.7689 6.69855 13.7639 6.66349ZM19.9989 9.03745C19.9836 8.9767 19.9603 8.91689 19.9287 8.85941C19.906 8.8181 19.88 8.77977 19.8512 8.74458C19.786 8.54696 19.7758 8.32871 19.8339 8.11273C19.9923 7.52385 20.5981 7.17487 21.187 7.33327C21.7759 7.49167 22.1249 8.09746 21.9665 8.68635C21.8081 9.27523 21.2023 9.6242 20.6134 9.4658C20.3547 9.39623 20.1423 9.24032 19.9989 9.03745ZM13.0215 21.9375C13.6313 21.9375 14.1257 21.4431 14.1257 20.8333C14.1257 20.2235 13.6313 19.7292 13.0215 19.7292C12.4117 19.7292 11.9173 20.2235 11.9173 20.8333C11.9173 21.4431 12.4117 21.9375 13.0215 21.9375ZM21.2017 17.807C21.7898 17.6456 22.1357 17.0381 21.9743 16.45C21.8129 15.8619 21.2054 15.5161 20.6173 15.6775C20.0292 15.8389 19.6833 16.4464 19.8447 17.0345C20.0061 17.6226 20.6137 17.9684 21.2017 17.807ZM10.6465 12.5C10.6465 11.1883 11.7098 10.125 13.0215 10.125C14.3332 10.125 15.3965 11.1883 15.3965 12.5C15.3965 13.8117 14.3332 14.875 13.0215 14.875C11.7098 14.875 10.6465 13.8117 10.6465 12.5Z" fill="white"/>
<path fill-rule="evenodd" clip-rule="evenodd" d="M5.20833 12.5001C5.20833 9.8156 7.16502 7.81258 9.375 7.81258L9.375 5.72925C5.83202 5.72925 3.125 8.8563 3.125 12.5001C3.125 16.1439 5.83202 19.2709 9.375 19.2709L9.375 17.1876C7.16502 17.1876 5.20833 15.1846 5.20833 12.5001Z" fill="url(#paint0_linear_6532_31760)"/>
<defs>
<linearGradient id="paint0_linear_6532_31760" x1="9.375" y1="6.77091" x2="9.375" y2="18.2292" gradientUnits="userSpaceOnUse">
<stop stop-color="#39CDEE"/>
<stop offset="1" stop-color="#38CCED" stop-opacity="0.4"/>
</linearGradient>
</defs>
</svg>
