<?xml version="1.0" encoding="UTF-8"?>
<svg version="1.1" viewBox="0 0 1000 1000" width="1280" height="1280" xmlns="http://www.w3.org/2000/svg">
<path transform="translate(822,360)" d="m0 0 9 3 11 6 13 10 8 7 10 13 7 15 2 8v14l-4 12-4 8v6l3 3h6l4-2 8-12 3-8 5 1 15 9 13 10 15 15 11 15 9 16 7 19 4 17 3 22 4 11 13 28 1 3v9l-7-4-5-4-8-1-6 4-2 4 10 8 11 10-1 10-5 8-7 6-11 4h-8l-5-2-2 5-4 5-8 5-13 4-6 1-21 1-15 3-15 6-14 8-13 4-12 2-15 1-4 1 4 4 9 2 17 1h23l12 3 9 4h7l15-6 10-2h20l13 4 9 6 7 7 6 12-1 4h-8l-6 4-1 2 5 2 10 7 2 3-1 9-8 9-7 3h-8l-6-3-4-4-5-1-24 3-17-4-1 7-8 16-11 12-8 7-14 8-15 6-16 4-15 2h-26l-22-3-18-6-14-8-10-9-7-7-10-16-6-16-8-27-8-20-10-18-10-14-12-13-13-10-16-9-13-5-17-4-10-1h-17l-22 3-16 6-5 3 25 3 22 2 23 5 16 6 19 10 16 12 14 14 10 15 7 17 8 26 11 25 8 14 7 9 7 8 11 8 15 8 21 7 10 3 3 4 2 9-1 11-4 12-7 11-9 10-8 7-16 11-10 9-3 7v7l2 7 4 2 10-2 24-10 10-3 7-1h9l16 4 9 6 5 6 1 3v9l-4 10-8 7-8 4-13 3h-23l-15-3h-15l-21 3h-370l-28-3-26-5-26-7-29-10-23-10-16-8-15-8-19-12-16-12-11-9-20-18-8-8-7-8-11-13-14-19-11-17-12-21-11-22-10-26-7-23-6-26v-6l2 3 4 9 7 11 11 15 7 9-3-10-16-43-14-39-3-9v-30l2-18 2 2 10 28 15 33 15 28 12 19 8 12 10 14 13 17 4 5 9 24 15 30-10-3-13-7-14-10-13-11 5 10 10 14 12 13 8 8 14 11 21 14 21 11 5 3 16 13 21 14 16 9 16 8 19 8 30 10 25 6 1-1-11-11-27-11-21-10-22-13-17-12-16-13-13-12-7-7-9-11-8-10-10-15-13-25-5-13v-9l8-24 8-16 6-10 8-10 9-10 14-11 16-9 16-7 19-6 22-5 33-5 64-9h6l-7 11-9 14-7 13-66 15-21 7-17 9-12 9-9 9-9 14-3 10 11-10 15-10 15-8 19-7 21-5 14-2 13-1h12l4 1-1 12-3 23-1 14v27l3 26 6 23 8 18 6 9-2-12-4-23-2-25v-15l2-23 5-25 7-21 11-23 10-15 11-14 12-13 8-7 15-12 18-12 18-10 27-13 28-10 27-8 73-18 31-9 20-8 23-12 13-9 14-11 13-13 9-11 12-13 11-9 12-9 11-7h2l5 13 7 11 7 6-9-21-3-12-1-7v-11l3-14 5-12 9-15 10-15 5-10 1 4v24l4 15 5 12 10 21 2 7v16l-5 16-3 6 5-1 6-4 5-6 3-7 1-9-3-16-10-25-7-17-4-16-1-7v-17zm-28 126m109 43-10 4-10 8-2 3 4 5 1 15 4 6 8 6 19 7 7 1 8-7 3-5 1 7v13l1 2-11-5-25-5-14-7-8-9-3-8-1-7-2 2-2 6v14l4 8 6 7 10 6 9 3 7 1h32l4-3 4-14 1-15-2-13-4-10-8-9-11-6-4-1zm-190 106 1 10 4 13 7 12 9 10 9 8 14 8 16 6 15 3 16 1v-2l-19-5-20-8-15-9-13-11-9-10-7-11-5-10-2-5zm-674 121m156 0 1 2z" fill="#fff"/>
<path transform="translate(524)" d="m0 0 10 3 13 2 28 3 12 5 7 7 10 16 7 5 6 1-4-10-2-10 5 3 7 8 9 4 7 2-2-8-1-9 13 5 23 12 13 10 6 7 2 4 1 16 10-21 6 5 8 14 10 25-1 7-3 20-1 27v25l-1 45-3 21-3 9 6-2 11-8 10-12 8-13 8-16 17-41 2-1 3 9 1 6v15l-4 16-9 17-9 12 12-8 10-8 8-8 3-5h2v11l-5 10-7 7-14 8-28 12-29 11-16 8-4 3-2-1 6-16 9-17 6-16 5-20-1-1-10 10-4 2 6-30 1-15-11 8h-1v-33l-1-5-8 18-7 11-3 1-8-15-10-12-8-16-5-15-9 6-2-1v-10l-1-11h-2l-2 4-6 6h-2l-8-22-1-1-4 11-2-1-6-14-4 7-4 2-6-1-25-11-27-9-22-5-15-2-14-1h-36l-18 2-17 4-16 7-8 6 24-3 18-1h11l28 2 23 4 24 6 20 7 18 8 23 12 15 10 13 10 13 12 1 2-4 5-12 4-24 3-63 1 8 4 17 5 13 2h39l17-2h10l10 4 6 5 1 7-2 1h-8l7 7 10 13 8 14 5 12 4 16 1 7v17l-3 18-6 18-8 17-12 19-10 11-14 11-15 10-22 12-21 9v-3l9-11 11-18 8-19 3-13 1-16-2-16-5-15-8-15-10-13-7-8-8-7-15-11-16-9-25-10-23-7-19-5 11 12 8 4 18 8 16 10 12 9 11 9 13 13 10 14 7 15 4 17v18l-3 15-6 16-9 16-10 14-12 14-13 13-10 6h-2l2-5 7-17 3-13v-24l-4-15-3-7-9 29-7 20-7 14-11 14-10 9-7 4h-3l3-9 4-15v-16l-4-13-2-4-3 7-6 18-6 10-9 11-11 12-12 11-15 11-17 10-18 8-25 8-64 16-44 12-16 7-4 2-2-6-1-7v-19l2-20 4-20 9-27 12-25 10-16 10-14 13-16 11-12 12-13 17-16 23-23 9-14 8-19 1-3h2l4 14v17l-4 17-7 19-8 15-9 12-7 8 16-4 16-8 10-7 9-8 11-14 9-14 7-15 6-18 3-15 1-9v-27l-4-33-5-16-9-17-8-10-11-11-10-7-16-8-18-6-3-2 1-5 10-13 9-8 38-25 18-10 25-10 21-5 15-2 29-1-4-5-10-6-10-3-18-2 3-2 20-4 12-1 26 1 9 3 11 6 10 4 9 2-6-16z" fill="#fff"/>
<path transform="translate(781,347)" d="m0 0 3 1-9 27-10 24-8 16-8 14-11 16-9 11-9 10-16 16-17 13-17 11-17 9-23 9-19 5-5 1h-58l12 8 12 4-1 2-41 7-30 6-14 4h-17l-56-4-22-1h-21l-30 2-26 4-26 6-30 10-29 14-17 9-21 13-17 12-14 11-14 12 19-9 29-14 27-13 25-11 20-7 21-5 15-2 17-1h50l52 1-5 5-22 14-21 8-27 7-36 7-54 10-33 7-20 6-20 8-15 8-14 10-10 9-8 10-9 15-6 16-4 17h-2l-9-20-5-18-2-11v-27l4-16 4-10 7-11 12-14 11-22 9-12 10-11 14-11 15-10 27-14 28-11 31-10 38-10 47-10 110-21 27-6 23-7 24-10 25-13 21-13 12-9 10-8 12-11 5-4 27-2 25-4 28-7 28-10 24-11 23-13z" fill="#fff"/>
<path transform="translate(978,791)" d="m0 0 5 5 7 14 4 14 1 7v13l-3 20-4 17-5 10-7 7-10 5-7 2-8 1h-15l-18-2-25-6-15-6-11-8-7-8-4-10-1-11 1-9 17-8 13-9 12-11 9-13 5-9 12-1 13 2 13 5h7l11-4z" fill="#fff"/>
<path transform="translate(90,418)" d="m0 0 1 4-2 18-1 28 2 26 4 20 5 15 7 13 8 10 9 8 5 3-2 4-12 17-8 13-4-4-5-11-5-12-7 15-4 16-1 8v17l3 19 1 5h-2l-8-12-11-17-11-19-12-23-11-26-7-20 3-10 9-21 10-20 12-20 11-16 10-13 11-13z" fill="#fff"/>
<path transform="translate(229,322)" d="m0 0h3l-2 5-12 20-12 23-8 17-9 24-7 23-5 24-3 25v42l-4 1-4-21-2-17-1-15v-21l3-32 5-38-12 21-8 21-5 19-3 18-2 29v14l2 29 3 21v5l-6-1-8-7-6-9-5-11-4-14-3-19v-45l3-29 6-35 6-24 7-19 4-8 1 3-5 26-3 28v6l8-18 9-14 8-10 13-13 15-10 17-8 19-5z" fill="#fff"/>
<path transform="translate(838,891)" d="m0 0 3 4 8 11 10 8 17 9 15 5 16 3 10 1h24l18-2 20-5h2l-1 9-7 11-7 7-11 6-13 3-9 1h-31l-3 1-1 7 7 3 13 1 5 3 3 5v9l-3 6-4 2h-8l-9-5-5-2-10-1-9-6-3-6v-11l1-5v-7l-15-8-10-8-7-7-7-12-2-7v-14z" fill="#fff"/>
<path transform="translate(831,242)" d="m0 0 1 4-6 16-10 19-10 14-11 12-12 12-14 10-21 12-25 11-36 12-7 1 3-2 24-10 23-12 21-14 13-10 13-11 12-11 8-9 5-7-16 5-21 14-19 12-21 12-23 12-23 10-16 5h-5l1-8 5-10 9-10 17-13 17-11 18-10 6-3-2 5-7 7-6 4h-2v2l5 2 2 1h12l16-8 11-8 15-13 14-12 13-10 11-6z" fill="#fff"/>
<path transform="translate(12,564)" d="m0 0 2 1 9 21 13 26 14 24 13 21 18 27 2 34-5-5-9-11-12-18-11-19-8-16-9-20-9-27-6-24z" fill="#fff"/>
<path transform="translate(774,57)" d="m0 0 1 3-8 24-4 20-2 16-1 24-3 19-4 12-7 14-9 12-3 2 1-22 4-33 5-27 6-23 6-16 7-13 9-10z" fill="#fff"/>
<path transform="translate(905,540)" d="m0 0 8 2 4 5 1 7-3 6-4 3-7 1-6-3-3-4-1-7 3-6 4-3z" fill="#fff"/>
<path transform="translate(676,365)" d="m0 0 4 1z" fill="#fff"/>
<path transform="translate(675,366)" d="m0 0" fill="#fff"/>
</svg>
