<svg width="26" height="26" viewBox="0 0 26 26" fill="none" xmlns="http://www.w3.org/2000/svg">
<path fill-rule="evenodd" clip-rule="evenodd" d="M13.0702 21.9732C12.928 22.2042 12.6761 22.345 12.4048 22.345H6.93609C6.66382 22.345 6.41119 22.2032 6.26931 21.9708L1.32139 13.8673C1.16968 13.6188 1.16871 13.3066 1.31886 13.0572L6.78761 3.97328C6.92893 3.73853 7.18291 3.59497 7.45692 3.59497H11.6236C12.0551 3.59497 12.4048 3.94475 12.4048 4.37622C12.4048 4.80769 12.0551 5.15747 11.6236 5.15747H7.89849L2.9018 13.4573L7.37444 20.7825H11.9683L13.8228 17.7689C14.0489 17.4014 14.5302 17.2868 14.8976 17.5129C15.2651 17.7391 15.3797 18.2203 15.1535 18.5878L13.0702 21.9732Z" fill="white"/>
<path fill-rule="evenodd" clip-rule="evenodd" d="M13.8224 3.96677C13.9646 3.73572 14.2164 3.59497 14.4877 3.59497H19.9565C20.2288 3.59497 20.4814 3.73672 20.6233 3.96909L25.5712 12.0726C25.7229 12.3211 25.7239 12.6333 25.5737 12.8827L20.105 21.9667C19.9636 22.2014 19.7097 22.345 19.4357 22.345H15.269C14.8375 22.345 14.4877 21.9952 14.4877 21.5637C14.4877 21.1322 14.8375 20.7825 15.269 20.7825H18.9941L23.9908 12.4826L19.5181 5.15747H14.9243L13.0698 8.17109C12.8436 8.53856 12.3624 8.65313 11.995 8.42699C11.6275 8.20086 11.5129 7.71965 11.739 7.35219L13.8224 3.96677Z" fill="white"/>
<rect x="15.5293" y="10.8867" width="4.16667" height="4.16667" transform="rotate(90 15.5293 10.8867)" fill="url(#paint0_linear_6532_32135)"/>
<defs>
<linearGradient id="paint0_linear_6532_32135" x1="17.6126" y1="10.8867" x2="17.6126" y2="15.0534" gradientUnits="userSpaceOnUse">
<stop stop-color="#38CCED"/>
<stop offset="1" stop-color="#38CCED" stop-opacity="0.4"/>
</linearGradient>
</defs>
</svg>
